<svg id="visual" viewBox="0 0 900 600" width="900" height="600" xmlns="http://www.w3.org/2000/svg" xmlns:xlink="http://www.w3.org/1999/xlink" version="1.1"><rect x="0" y="0" width="900" height="600" fill="#931C1C"></rect><path d="M0 422L113 406L225 351L338 416L450 413L563 421L675 418L788 366L900 360L900 601L788 601L675 601L563 601L450 601L338 601L225 601L113 601L0 601Z" fill="#871400"></path><path d="M0 366L113 384L225 401L338 425L450 372L563 448L675 414L788 367L900 394L900 601L788 601L675 601L563 601L450 601L338 601L225 601L113 601L0 601Z" fill="#ae3705"></path><path d="M0 406L113 418L225 442L338 416L450 426L563 453L675 462L788 469L900 426L900 601L788 601L675 601L563 601L450 601L338 601L225 601L113 601L0 601Z" fill="#d65809"></path><path d="M0 445L113 468L225 432L338 479L450 448L563 445L675 459L788 480L900 459L900 601L788 601L675 601L563 601L450 601L338 601L225 601L113 601L0 601Z" fill="#f5730a"></path><path d="M0 499L113 508L225 456L338 512L450 489L563 508L675 465L788 513L900 465L900 601L788 601L675 601L563 601L450 601L338 601L225 601L113 601L0 601Z" fill="#f5730a"></path><path d="M0 535L113 493L225 527L338 513L450 539L563 537L675 532L788 494L900 501L900 601L788 601L675 601L563 601L450 601L338 601L225 601L113 601L0 601Z" fill="#d65809"></path><path d="M0 518L113 541L225 534L338 527L450 530L563 556L675 549L788 524L900 520L900 601L788 601L675 601L563 601L450 601L338 601L225 601L113 601L0 601Z" fill="#ae3705"></path><path d="M0 564L113 567L225 559L338 547L450 555L563 552L675 554L788 563L900 549L900 601L788 601L675 601L563 601L450 601L338 601L225 601L113 601L0 601Z" fill="#871400"></path></svg>